<mxfile host="Electron" agent="Mozilla/5.0 (Macintosh; Intel Mac OS X 10_15_7) AppleWebKit/537.36 (KHTML, like Gecko) draw.io/25.0.2 Chrome/128.0.6613.186 Electron/32.2.5 Safari/537.36" version="25.0.2">
  <diagram name="ページ1" id="VSj2wmTbl-WqB4pPmQmD">
    <mxGraphModel dx="708" dy="532" grid="1" gridSize="10" guides="1" tooltips="1" connect="1" arrows="1" fold="1" page="1" pageScale="1" pageWidth="827" pageHeight="1169" math="0" shadow="0">
      <root>
        <mxCell id="0" />
        <mxCell id="1" parent="0" />
        <mxCell id="aAubT2UVhq9OH1OdG5Ef-9" style="edgeStyle=orthogonalEdgeStyle;rounded=0;orthogonalLoop=1;jettySize=auto;html=1;exitX=0;exitY=0.75;exitDx=0;exitDy=0;exitPerimeter=0;endArrow=none;endFill=0;" edge="1" parent="1" source="aAubT2UVhq9OH1OdG5Ef-3">
          <mxGeometry relative="1" as="geometry">
            <mxPoint x="120" y="410.08333333333337" as="targetPoint" />
          </mxGeometry>
        </mxCell>
        <mxCell id="aAubT2UVhq9OH1OdG5Ef-14" value="Cin" style="edgeLabel;html=1;align=center;verticalAlign=middle;resizable=0;points=[];" vertex="1" connectable="0" parent="aAubT2UVhq9OH1OdG5Ef-9">
          <mxGeometry x="0.8527" relative="1" as="geometry">
            <mxPoint x="-13" as="offset" />
          </mxGeometry>
        </mxCell>
        <mxCell id="aAubT2UVhq9OH1OdG5Ef-20" style="edgeStyle=orthogonalEdgeStyle;shape=connector;rounded=0;orthogonalLoop=1;jettySize=auto;html=1;exitX=1;exitY=0.25;exitDx=0;exitDy=0;exitPerimeter=0;strokeColor=default;align=center;verticalAlign=middle;fontFamily=Helvetica;fontSize=11;fontColor=default;labelBackgroundColor=default;endArrow=none;endFill=0;" edge="1" parent="1" source="aAubT2UVhq9OH1OdG5Ef-3" target="aAubT2UVhq9OH1OdG5Ef-19">
          <mxGeometry relative="1" as="geometry">
            <Array as="points">
              <mxPoint x="260" y="350" />
              <mxPoint x="260" y="350" />
            </Array>
          </mxGeometry>
        </mxCell>
        <mxCell id="aAubT2UVhq9OH1OdG5Ef-48" style="edgeStyle=orthogonalEdgeStyle;shape=connector;rounded=0;orthogonalLoop=1;jettySize=auto;html=1;exitX=0;exitY=0.25;exitDx=0;exitDy=0;exitPerimeter=0;strokeColor=default;align=center;verticalAlign=middle;fontFamily=Helvetica;fontSize=11;fontColor=default;labelBackgroundColor=default;endArrow=none;endFill=0;" edge="1" parent="1" source="aAubT2UVhq9OH1OdG5Ef-3" target="aAubT2UVhq9OH1OdG5Ef-46">
          <mxGeometry relative="1" as="geometry">
            <Array as="points">
              <mxPoint x="160" y="350" />
              <mxPoint x="160" y="350" />
            </Array>
          </mxGeometry>
        </mxCell>
        <mxCell id="aAubT2UVhq9OH1OdG5Ef-3" value="" style="verticalLabelPosition=bottom;shadow=0;dashed=0;align=center;html=1;verticalAlign=top;shape=stencil(tZZNc4IwEIZ/Dcd2kPjB1VI51JPTS68BV80YEiakav99A4szRhukQWe87Lu6z5tlNxiQpNrREoIopFUJuQ7IexBFB6oYzbiRI5PZoRiHGApaACofSxOmnJUvKZclZiut5B6ObK3bnzGxA8U0Zo+ojcKmFlkE4dyo9YckuRTCOGBSVFbmIm+KUya0bQIrlwZSgAaFauv1ZEU/bfQaTVAIovQ/qIUHyo+09CDN/FCrHqjRY/q3ErD1oLkORhKjuKaGJBnN91slv8X6T4+qnvab4W4HdGo7uu51hx8HlSQbqaDDzoZxjrvT0deS1lt1kzinC3kA13y4TNsVOBPgPHa/El0mpsNN9Cthm4iHt6K9sQb1Ih7ejGsbPt2wK4yHP5LuEs1WOAbXvH3ujbyGU72mlLOtQFwOor44zm8bFOcYHy6+l0mtZWHv8cR+iHeusZ7sNx/2+DHsLx/29DHsz17s2VN6nviwXeduRvTmfm5U/HfUCL8=);" vertex="1" parent="1">
          <mxGeometry x="160" y="350" width="100" height="80" as="geometry" />
        </mxCell>
        <mxCell id="aAubT2UVhq9OH1OdG5Ef-24" style="edgeStyle=orthogonalEdgeStyle;shape=connector;rounded=0;orthogonalLoop=1;jettySize=auto;html=1;exitX=0;exitY=0.25;exitDx=0;exitDy=0;exitPerimeter=0;strokeColor=default;align=center;verticalAlign=middle;fontFamily=Helvetica;fontSize=11;fontColor=default;labelBackgroundColor=default;endArrow=none;endFill=0;" edge="1" parent="1" source="aAubT2UVhq9OH1OdG5Ef-4" target="aAubT2UVhq9OH1OdG5Ef-23">
          <mxGeometry relative="1" as="geometry">
            <Array as="points">
              <mxPoint x="290" y="350" />
              <mxPoint x="290" y="350" />
            </Array>
          </mxGeometry>
        </mxCell>
        <mxCell id="aAubT2UVhq9OH1OdG5Ef-30" style="edgeStyle=orthogonalEdgeStyle;shape=connector;rounded=0;orthogonalLoop=1;jettySize=auto;html=1;exitX=1;exitY=0.25;exitDx=0;exitDy=0;exitPerimeter=0;strokeColor=default;align=center;verticalAlign=middle;fontFamily=Helvetica;fontSize=11;fontColor=default;labelBackgroundColor=default;endArrow=none;endFill=0;" edge="1" parent="1" source="aAubT2UVhq9OH1OdG5Ef-4" target="aAubT2UVhq9OH1OdG5Ef-28">
          <mxGeometry relative="1" as="geometry">
            <Array as="points">
              <mxPoint x="390" y="350" />
              <mxPoint x="390" y="350" />
            </Array>
          </mxGeometry>
        </mxCell>
        <mxCell id="aAubT2UVhq9OH1OdG5Ef-4" value="" style="verticalLabelPosition=bottom;shadow=0;dashed=0;align=center;html=1;verticalAlign=top;shape=stencil(tZZNc4IwEIZ/Dcd2kPjB1VI51JPTS68BV80YEiakav99A4szRhukQWe87Lu6z5tlNxiQpNrREoIopFUJuQ7IexBFB6oYzbiRI5PZoRiHGApaACofSxOmnJUvKZclZiut5B6ObK3bnzGxA8U0Zo+ojcKmFlkE4dyo9YckuRTCOGBSVFbmIm+KUya0bQIrlwZSgAaFauv1ZEU/bfQaTVAIovQ/qIUHyo+09CDN/FCrHqjRY/q3ErD1oLkORhKjuKaGJBnN91slv8X6T4+qnvab4W4HdGo7uu51hx8HlSQbqaDDzoZxjrvT0deS1lt1kzinC3kA13y4TNsVOBPgPHa/El0mpsNN9Cthm4iHt6K9sQb1Ih7ejGsbPt2wK4yHP5LuEs1WOAbXvH3ujbyGU72mlLOtQFwOor44zm8bFOcYHy6+l0mtZWHv8cR+iHeusZ7sNx/2+DHsLx/29DHsz17s2VN6nviwXeduRvTmfm5U/HfUCL8=);" vertex="1" parent="1">
          <mxGeometry x="290" y="350" width="100" height="80" as="geometry" />
        </mxCell>
        <mxCell id="aAubT2UVhq9OH1OdG5Ef-31" style="edgeStyle=orthogonalEdgeStyle;shape=connector;rounded=0;orthogonalLoop=1;jettySize=auto;html=1;exitX=0;exitY=0.25;exitDx=0;exitDy=0;exitPerimeter=0;strokeColor=default;align=center;verticalAlign=middle;fontFamily=Helvetica;fontSize=11;fontColor=default;labelBackgroundColor=default;endArrow=none;endFill=0;" edge="1" parent="1" source="aAubT2UVhq9OH1OdG5Ef-5" target="aAubT2UVhq9OH1OdG5Ef-29">
          <mxGeometry relative="1" as="geometry">
            <Array as="points">
              <mxPoint x="420" y="350" />
              <mxPoint x="420" y="350" />
            </Array>
          </mxGeometry>
        </mxCell>
        <mxCell id="aAubT2UVhq9OH1OdG5Ef-36" style="edgeStyle=orthogonalEdgeStyle;shape=connector;rounded=0;orthogonalLoop=1;jettySize=auto;html=1;exitX=1;exitY=0.25;exitDx=0;exitDy=0;exitPerimeter=0;strokeColor=default;align=center;verticalAlign=middle;fontFamily=Helvetica;fontSize=11;fontColor=default;labelBackgroundColor=default;endArrow=none;endFill=0;" edge="1" parent="1" source="aAubT2UVhq9OH1OdG5Ef-5" target="aAubT2UVhq9OH1OdG5Ef-34">
          <mxGeometry relative="1" as="geometry">
            <Array as="points">
              <mxPoint x="520" y="350" />
              <mxPoint x="520" y="350" />
            </Array>
          </mxGeometry>
        </mxCell>
        <mxCell id="aAubT2UVhq9OH1OdG5Ef-5" value="" style="verticalLabelPosition=bottom;shadow=0;dashed=0;align=center;html=1;verticalAlign=top;shape=stencil(tZZNc4IwEIZ/Dcd2kPjB1VI51JPTS68BV80YEiakav99A4szRhukQWe87Lu6z5tlNxiQpNrREoIopFUJuQ7IexBFB6oYzbiRI5PZoRiHGApaACofSxOmnJUvKZclZiut5B6ObK3bnzGxA8U0Zo+ojcKmFlkE4dyo9YckuRTCOGBSVFbmIm+KUya0bQIrlwZSgAaFauv1ZEU/bfQaTVAIovQ/qIUHyo+09CDN/FCrHqjRY/q3ErD1oLkORhKjuKaGJBnN91slv8X6T4+qnvab4W4HdGo7uu51hx8HlSQbqaDDzoZxjrvT0deS1lt1kzinC3kA13y4TNsVOBPgPHa/El0mpsNN9Cthm4iHt6K9sQb1Ih7ejGsbPt2wK4yHP5LuEs1WOAbXvH3ujbyGU72mlLOtQFwOor44zm8bFOcYHy6+l0mtZWHv8cR+iHeusZ7sNx/2+DHsLx/29DHsz17s2VN6nviwXeduRvTmfm5U/HfUCL8=);" vertex="1" parent="1">
          <mxGeometry x="420" y="350" width="100" height="80" as="geometry" />
        </mxCell>
        <mxCell id="aAubT2UVhq9OH1OdG5Ef-37" style="edgeStyle=orthogonalEdgeStyle;shape=connector;rounded=0;orthogonalLoop=1;jettySize=auto;html=1;exitX=0;exitY=0.25;exitDx=0;exitDy=0;exitPerimeter=0;strokeColor=default;align=center;verticalAlign=middle;fontFamily=Helvetica;fontSize=11;fontColor=default;labelBackgroundColor=default;endArrow=none;endFill=0;" edge="1" parent="1" source="aAubT2UVhq9OH1OdG5Ef-6" target="aAubT2UVhq9OH1OdG5Ef-35">
          <mxGeometry relative="1" as="geometry">
            <Array as="points">
              <mxPoint x="550" y="350" />
              <mxPoint x="550" y="350" />
            </Array>
          </mxGeometry>
        </mxCell>
        <mxCell id="aAubT2UVhq9OH1OdG5Ef-42" style="edgeStyle=orthogonalEdgeStyle;shape=connector;rounded=0;orthogonalLoop=1;jettySize=auto;html=1;exitX=1;exitY=0.25;exitDx=0;exitDy=0;exitPerimeter=0;strokeColor=default;align=center;verticalAlign=middle;fontFamily=Helvetica;fontSize=11;fontColor=default;labelBackgroundColor=default;endArrow=none;endFill=0;" edge="1" parent="1" source="aAubT2UVhq9OH1OdG5Ef-6" target="aAubT2UVhq9OH1OdG5Ef-41">
          <mxGeometry relative="1" as="geometry">
            <Array as="points">
              <mxPoint x="650" y="350" />
              <mxPoint x="650" y="350" />
            </Array>
          </mxGeometry>
        </mxCell>
        <mxCell id="aAubT2UVhq9OH1OdG5Ef-43" style="edgeStyle=orthogonalEdgeStyle;shape=connector;rounded=0;orthogonalLoop=1;jettySize=auto;html=1;exitX=1;exitY=0.75;exitDx=0;exitDy=0;exitPerimeter=0;strokeColor=default;align=center;verticalAlign=middle;fontFamily=Helvetica;fontSize=11;fontColor=default;labelBackgroundColor=default;endArrow=none;endFill=0;" edge="1" parent="1" source="aAubT2UVhq9OH1OdG5Ef-6">
          <mxGeometry relative="1" as="geometry">
            <mxPoint x="689.9999999999998" y="410.11764705882354" as="targetPoint" />
          </mxGeometry>
        </mxCell>
        <mxCell id="aAubT2UVhq9OH1OdG5Ef-44" value="Cout" style="edgeLabel;html=1;align=center;verticalAlign=middle;resizable=0;points=[];fontFamily=Helvetica;fontSize=11;fontColor=default;labelBackgroundColor=default;" vertex="1" connectable="0" parent="aAubT2UVhq9OH1OdG5Ef-43">
          <mxGeometry x="1" y="5" relative="1" as="geometry">
            <mxPoint x="5" y="4" as="offset" />
          </mxGeometry>
        </mxCell>
        <mxCell id="aAubT2UVhq9OH1OdG5Ef-6" value="" style="verticalLabelPosition=bottom;shadow=0;dashed=0;align=center;html=1;verticalAlign=top;shape=stencil(tZZNc4IwEIZ/Dcd2kPjB1VI51JPTS68BV80YEiakav99A4szRhukQWe87Lu6z5tlNxiQpNrREoIopFUJuQ7IexBFB6oYzbiRI5PZoRiHGApaACofSxOmnJUvKZclZiut5B6ObK3bnzGxA8U0Zo+ojcKmFlkE4dyo9YckuRTCOGBSVFbmIm+KUya0bQIrlwZSgAaFauv1ZEU/bfQaTVAIovQ/qIUHyo+09CDN/FCrHqjRY/q3ErD1oLkORhKjuKaGJBnN91slv8X6T4+qnvab4W4HdGo7uu51hx8HlSQbqaDDzoZxjrvT0deS1lt1kzinC3kA13y4TNsVOBPgPHa/El0mpsNN9Cthm4iHt6K9sQb1Ih7ejGsbPt2wK4yHP5LuEs1WOAbXvH3ujbyGU72mlLOtQFwOor44zm8bFOcYHy6+l0mtZWHv8cR+iHeusZ7sNx/2+DHsLx/29DHsz17s2VN6nviwXeduRvTmfm5U/HfUCL8=);" vertex="1" parent="1">
          <mxGeometry x="550" y="350" width="100" height="80" as="geometry" />
        </mxCell>
        <mxCell id="aAubT2UVhq9OH1OdG5Ef-15" style="edgeStyle=orthogonalEdgeStyle;rounded=0;orthogonalLoop=1;jettySize=auto;html=1;exitX=1;exitY=0.75;exitDx=0;exitDy=0;exitPerimeter=0;entryX=0;entryY=0.75;entryDx=0;entryDy=0;entryPerimeter=0;endArrow=none;endFill=0;" edge="1" parent="1" source="aAubT2UVhq9OH1OdG5Ef-3" target="aAubT2UVhq9OH1OdG5Ef-4">
          <mxGeometry relative="1" as="geometry" />
        </mxCell>
        <mxCell id="aAubT2UVhq9OH1OdG5Ef-16" style="edgeStyle=orthogonalEdgeStyle;shape=connector;rounded=0;orthogonalLoop=1;jettySize=auto;html=1;exitX=1;exitY=0.75;exitDx=0;exitDy=0;exitPerimeter=0;entryX=0;entryY=0.75;entryDx=0;entryDy=0;entryPerimeter=0;strokeColor=default;align=center;verticalAlign=middle;fontFamily=Helvetica;fontSize=11;fontColor=default;labelBackgroundColor=default;endArrow=none;endFill=0;" edge="1" parent="1" source="aAubT2UVhq9OH1OdG5Ef-4" target="aAubT2UVhq9OH1OdG5Ef-5">
          <mxGeometry relative="1" as="geometry" />
        </mxCell>
        <mxCell id="aAubT2UVhq9OH1OdG5Ef-17" style="edgeStyle=orthogonalEdgeStyle;shape=connector;rounded=0;orthogonalLoop=1;jettySize=auto;html=1;exitX=1;exitY=0.75;exitDx=0;exitDy=0;exitPerimeter=0;entryX=0;entryY=0.75;entryDx=0;entryDy=0;entryPerimeter=0;strokeColor=default;align=center;verticalAlign=middle;fontFamily=Helvetica;fontSize=11;fontColor=default;labelBackgroundColor=default;endArrow=none;endFill=0;" edge="1" parent="1" source="aAubT2UVhq9OH1OdG5Ef-5" target="aAubT2UVhq9OH1OdG5Ef-6">
          <mxGeometry relative="1" as="geometry" />
        </mxCell>
        <mxCell id="aAubT2UVhq9OH1OdG5Ef-19" value="S0" style="text;html=1;align=center;verticalAlign=middle;resizable=0;points=[];autosize=1;strokeColor=none;fillColor=none;fontFamily=Helvetica;fontSize=11;fontColor=default;labelBackgroundColor=default;" vertex="1" parent="1">
          <mxGeometry x="240" y="300" width="40" height="30" as="geometry" />
        </mxCell>
        <mxCell id="aAubT2UVhq9OH1OdG5Ef-23" value="A1" style="text;html=1;align=center;verticalAlign=middle;resizable=0;points=[];autosize=1;strokeColor=none;fillColor=none;fontFamily=Helvetica;fontSize=11;fontColor=default;labelBackgroundColor=default;" vertex="1" parent="1">
          <mxGeometry x="270" y="300" width="40" height="30" as="geometry" />
        </mxCell>
        <mxCell id="aAubT2UVhq9OH1OdG5Ef-28" value="S1" style="text;html=1;align=center;verticalAlign=middle;resizable=0;points=[];autosize=1;strokeColor=none;fillColor=none;fontFamily=Helvetica;fontSize=11;fontColor=default;labelBackgroundColor=default;" vertex="1" parent="1">
          <mxGeometry x="370" y="300" width="40" height="30" as="geometry" />
        </mxCell>
        <mxCell id="aAubT2UVhq9OH1OdG5Ef-29" value="A1" style="text;html=1;align=center;verticalAlign=middle;resizable=0;points=[];autosize=1;strokeColor=none;fillColor=none;fontFamily=Helvetica;fontSize=11;fontColor=default;labelBackgroundColor=default;" vertex="1" parent="1">
          <mxGeometry x="400" y="300" width="40" height="30" as="geometry" />
        </mxCell>
        <mxCell id="aAubT2UVhq9OH1OdG5Ef-34" value="S2" style="text;html=1;align=center;verticalAlign=middle;resizable=0;points=[];autosize=1;strokeColor=none;fillColor=none;fontFamily=Helvetica;fontSize=11;fontColor=default;labelBackgroundColor=default;" vertex="1" parent="1">
          <mxGeometry x="500" y="300" width="40" height="30" as="geometry" />
        </mxCell>
        <mxCell id="aAubT2UVhq9OH1OdG5Ef-35" value="A2" style="text;html=1;align=center;verticalAlign=middle;resizable=0;points=[];autosize=1;strokeColor=none;fillColor=none;fontFamily=Helvetica;fontSize=11;fontColor=default;labelBackgroundColor=default;" vertex="1" parent="1">
          <mxGeometry x="530" y="300" width="40" height="30" as="geometry" />
        </mxCell>
        <mxCell id="aAubT2UVhq9OH1OdG5Ef-41" value="S3" style="text;html=1;align=center;verticalAlign=middle;resizable=0;points=[];autosize=1;strokeColor=none;fillColor=none;fontFamily=Helvetica;fontSize=11;fontColor=default;labelBackgroundColor=default;" vertex="1" parent="1">
          <mxGeometry x="630" y="300" width="40" height="30" as="geometry" />
        </mxCell>
        <mxCell id="aAubT2UVhq9OH1OdG5Ef-46" value="A0" style="text;html=1;align=center;verticalAlign=middle;resizable=0;points=[];autosize=1;strokeColor=none;fillColor=none;fontFamily=Helvetica;fontSize=11;fontColor=default;labelBackgroundColor=default;" vertex="1" parent="1">
          <mxGeometry x="140" y="300" width="40" height="30" as="geometry" />
        </mxCell>
        <mxCell id="aAubT2UVhq9OH1OdG5Ef-88" style="edgeStyle=orthogonalEdgeStyle;shape=connector;rounded=0;orthogonalLoop=1;jettySize=auto;html=1;exitX=0;exitY=0.25;exitDx=0;exitDy=0;exitPerimeter=0;strokeColor=default;align=center;verticalAlign=middle;fontFamily=Helvetica;fontSize=11;fontColor=default;labelBackgroundColor=default;endArrow=oval;endFill=1;" edge="1" parent="1" source="aAubT2UVhq9OH1OdG5Ef-61">
          <mxGeometry relative="1" as="geometry">
            <mxPoint x="282.43902439024396" y="490" as="targetPoint" />
          </mxGeometry>
        </mxCell>
        <mxCell id="aAubT2UVhq9OH1OdG5Ef-93" style="edgeStyle=orthogonalEdgeStyle;shape=connector;rounded=0;orthogonalLoop=1;jettySize=auto;html=1;exitX=1;exitY=0.5;exitDx=0;exitDy=0;exitPerimeter=0;strokeColor=default;align=center;verticalAlign=middle;fontFamily=Helvetica;fontSize=11;fontColor=default;labelBackgroundColor=default;endArrow=none;endFill=0;" edge="1" parent="1" source="aAubT2UVhq9OH1OdG5Ef-61">
          <mxGeometry relative="1" as="geometry">
            <mxPoint x="289.7560975609757" y="390" as="targetPoint" />
          </mxGeometry>
        </mxCell>
        <mxCell id="aAubT2UVhq9OH1OdG5Ef-97" style="edgeStyle=orthogonalEdgeStyle;shape=connector;rounded=0;orthogonalLoop=1;jettySize=auto;html=1;exitX=0;exitY=0.75;exitDx=0;exitDy=0;exitPerimeter=0;strokeColor=default;align=center;verticalAlign=middle;fontFamily=Helvetica;fontSize=11;fontColor=default;labelBackgroundColor=default;endArrow=none;endFill=0;" edge="1" parent="1" source="aAubT2UVhq9OH1OdG5Ef-61">
          <mxGeometry relative="1" as="geometry">
            <mxPoint x="297.4186046511628" y="530" as="targetPoint" />
          </mxGeometry>
        </mxCell>
        <mxCell id="aAubT2UVhq9OH1OdG5Ef-102" value="B1" style="edgeLabel;html=1;align=center;verticalAlign=middle;resizable=0;points=[];fontFamily=Helvetica;fontSize=11;fontColor=default;labelBackgroundColor=default;" vertex="1" connectable="0" parent="aAubT2UVhq9OH1OdG5Ef-97">
          <mxGeometry x="0.9197" relative="1" as="geometry">
            <mxPoint as="offset" />
          </mxGeometry>
        </mxCell>
        <mxCell id="aAubT2UVhq9OH1OdG5Ef-61" value="" style="verticalLabelPosition=bottom;shadow=0;dashed=0;align=center;html=1;verticalAlign=top;shape=mxgraph.electrical.logic_gates.logic_gate;operation=xor;fontFamily=Helvetica;fontSize=11;fontColor=default;labelBackgroundColor=default;rotation=-90;" vertex="1" parent="1">
          <mxGeometry x="265" y="440" width="50" height="30" as="geometry" />
        </mxCell>
        <mxCell id="aAubT2UVhq9OH1OdG5Ef-87" style="edgeStyle=orthogonalEdgeStyle;shape=connector;rounded=0;orthogonalLoop=1;jettySize=auto;html=1;exitX=0;exitY=0.25;exitDx=0;exitDy=0;exitPerimeter=0;strokeColor=default;align=center;verticalAlign=middle;fontFamily=Helvetica;fontSize=11;fontColor=default;labelBackgroundColor=default;endArrow=oval;endFill=1;" edge="1" parent="1" source="aAubT2UVhq9OH1OdG5Ef-68">
          <mxGeometry relative="1" as="geometry">
            <mxPoint x="152.68292682926835" y="490" as="targetPoint" />
          </mxGeometry>
        </mxCell>
        <mxCell id="aAubT2UVhq9OH1OdG5Ef-98" style="edgeStyle=orthogonalEdgeStyle;shape=connector;rounded=0;orthogonalLoop=1;jettySize=auto;html=1;exitX=0;exitY=0.75;exitDx=0;exitDy=0;exitPerimeter=0;strokeColor=default;align=center;verticalAlign=middle;fontFamily=Helvetica;fontSize=11;fontColor=default;labelBackgroundColor=default;endArrow=none;endFill=0;" edge="1" parent="1" source="aAubT2UVhq9OH1OdG5Ef-68">
          <mxGeometry relative="1" as="geometry">
            <mxPoint x="167.65116279069775" y="530" as="targetPoint" />
          </mxGeometry>
        </mxCell>
        <mxCell id="aAubT2UVhq9OH1OdG5Ef-101" value="B0" style="edgeLabel;html=1;align=center;verticalAlign=middle;resizable=0;points=[];fontFamily=Helvetica;fontSize=11;fontColor=default;labelBackgroundColor=default;" vertex="1" connectable="0" parent="aAubT2UVhq9OH1OdG5Ef-98">
          <mxGeometry x="0.9027" y="-1" relative="1" as="geometry">
            <mxPoint as="offset" />
          </mxGeometry>
        </mxCell>
        <mxCell id="aAubT2UVhq9OH1OdG5Ef-68" value="" style="verticalLabelPosition=bottom;shadow=0;dashed=0;align=center;html=1;verticalAlign=top;shape=mxgraph.electrical.logic_gates.logic_gate;operation=xor;fontFamily=Helvetica;fontSize=11;fontColor=default;labelBackgroundColor=default;rotation=-90;" vertex="1" parent="1">
          <mxGeometry x="135" y="440" width="50" height="30" as="geometry" />
        </mxCell>
        <mxCell id="aAubT2UVhq9OH1OdG5Ef-89" style="edgeStyle=orthogonalEdgeStyle;shape=connector;rounded=0;orthogonalLoop=1;jettySize=auto;html=1;exitX=0;exitY=0.25;exitDx=0;exitDy=0;exitPerimeter=0;strokeColor=default;align=center;verticalAlign=middle;fontFamily=Helvetica;fontSize=11;fontColor=default;labelBackgroundColor=default;endArrow=oval;endFill=1;" edge="1" parent="1" source="aAubT2UVhq9OH1OdG5Ef-70">
          <mxGeometry relative="1" as="geometry">
            <mxPoint x="412.68292682926835" y="490" as="targetPoint" />
          </mxGeometry>
        </mxCell>
        <mxCell id="aAubT2UVhq9OH1OdG5Ef-99" style="edgeStyle=orthogonalEdgeStyle;shape=connector;rounded=0;orthogonalLoop=1;jettySize=auto;html=1;exitX=0;exitY=0.75;exitDx=0;exitDy=0;exitPerimeter=0;strokeColor=default;align=center;verticalAlign=middle;fontFamily=Helvetica;fontSize=11;fontColor=default;labelBackgroundColor=default;endArrow=none;endFill=0;" edge="1" parent="1" source="aAubT2UVhq9OH1OdG5Ef-70">
          <mxGeometry relative="1" as="geometry">
            <mxPoint x="427.65116279069775" y="530" as="targetPoint" />
          </mxGeometry>
        </mxCell>
        <mxCell id="aAubT2UVhq9OH1OdG5Ef-103" value="B2" style="edgeLabel;html=1;align=center;verticalAlign=middle;resizable=0;points=[];fontFamily=Helvetica;fontSize=11;fontColor=default;labelBackgroundColor=default;" vertex="1" connectable="0" parent="aAubT2UVhq9OH1OdG5Ef-99">
          <mxGeometry x="0.9577" y="-1" relative="1" as="geometry">
            <mxPoint as="offset" />
          </mxGeometry>
        </mxCell>
        <mxCell id="aAubT2UVhq9OH1OdG5Ef-70" value="" style="verticalLabelPosition=bottom;shadow=0;dashed=0;align=center;html=1;verticalAlign=top;shape=mxgraph.electrical.logic_gates.logic_gate;operation=xor;fontFamily=Helvetica;fontSize=11;fontColor=default;labelBackgroundColor=default;rotation=-90;" vertex="1" parent="1">
          <mxGeometry x="395" y="440" width="50" height="30" as="geometry" />
        </mxCell>
        <mxCell id="aAubT2UVhq9OH1OdG5Ef-100" style="edgeStyle=orthogonalEdgeStyle;shape=connector;rounded=0;orthogonalLoop=1;jettySize=auto;html=1;exitX=0;exitY=0.75;exitDx=0;exitDy=0;exitPerimeter=0;strokeColor=default;align=center;verticalAlign=middle;fontFamily=Helvetica;fontSize=11;fontColor=default;labelBackgroundColor=default;endArrow=none;endFill=0;" edge="1" parent="1" source="aAubT2UVhq9OH1OdG5Ef-72">
          <mxGeometry relative="1" as="geometry">
            <mxPoint x="557.4186046511629" y="530" as="targetPoint" />
          </mxGeometry>
        </mxCell>
        <mxCell id="aAubT2UVhq9OH1OdG5Ef-104" value="B3" style="edgeLabel;html=1;align=center;verticalAlign=middle;resizable=0;points=[];fontFamily=Helvetica;fontSize=11;fontColor=default;labelBackgroundColor=default;" vertex="1" connectable="0" parent="aAubT2UVhq9OH1OdG5Ef-100">
          <mxGeometry x="0.9563" relative="1" as="geometry">
            <mxPoint as="offset" />
          </mxGeometry>
        </mxCell>
        <mxCell id="aAubT2UVhq9OH1OdG5Ef-72" value="" style="verticalLabelPosition=bottom;shadow=0;dashed=0;align=center;html=1;verticalAlign=top;shape=mxgraph.electrical.logic_gates.logic_gate;operation=xor;fontFamily=Helvetica;fontSize=11;fontColor=default;labelBackgroundColor=default;rotation=-90;" vertex="1" parent="1">
          <mxGeometry x="525" y="440" width="50" height="30" as="geometry" />
        </mxCell>
        <mxCell id="aAubT2UVhq9OH1OdG5Ef-86" value="" style="endArrow=none;html=1;rounded=0;strokeColor=default;align=center;verticalAlign=middle;fontFamily=Helvetica;fontSize=11;fontColor=default;labelBackgroundColor=default;edgeStyle=orthogonalEdgeStyle;entryX=0;entryY=0.25;entryDx=0;entryDy=0;entryPerimeter=0;" edge="1" parent="1" target="aAubT2UVhq9OH1OdG5Ef-72">
          <mxGeometry width="50" height="50" relative="1" as="geometry">
            <mxPoint x="110" y="490" as="sourcePoint" />
            <mxPoint x="260" y="450" as="targetPoint" />
            <Array as="points">
              <mxPoint x="210" y="490" />
              <mxPoint x="542" y="490" />
            </Array>
          </mxGeometry>
        </mxCell>
        <mxCell id="aAubT2UVhq9OH1OdG5Ef-90" value="sub" style="edgeLabel;html=1;align=center;verticalAlign=middle;resizable=0;points=[];fontFamily=Helvetica;fontSize=11;fontColor=default;labelBackgroundColor=default;" vertex="1" connectable="0" parent="aAubT2UVhq9OH1OdG5Ef-86">
          <mxGeometry x="-1" y="-1" relative="1" as="geometry">
            <mxPoint y="-1" as="offset" />
          </mxGeometry>
        </mxCell>
        <mxCell id="aAubT2UVhq9OH1OdG5Ef-91" style="edgeStyle=orthogonalEdgeStyle;shape=connector;rounded=0;orthogonalLoop=1;jettySize=auto;html=1;exitX=1;exitY=0.5;exitDx=0;exitDy=0;exitPerimeter=0;entryX=0;entryY=0.5;entryDx=0;entryDy=0;entryPerimeter=0;strokeColor=default;align=center;verticalAlign=middle;fontFamily=Helvetica;fontSize=11;fontColor=default;labelBackgroundColor=default;endArrow=none;endFill=0;" edge="1" parent="1" source="aAubT2UVhq9OH1OdG5Ef-72" target="aAubT2UVhq9OH1OdG5Ef-6">
          <mxGeometry relative="1" as="geometry">
            <Array as="points">
              <mxPoint x="550" y="400" />
              <mxPoint x="550" y="400" />
            </Array>
          </mxGeometry>
        </mxCell>
        <mxCell id="aAubT2UVhq9OH1OdG5Ef-92" style="edgeStyle=orthogonalEdgeStyle;shape=connector;rounded=0;orthogonalLoop=1;jettySize=auto;html=1;exitX=1;exitY=0.5;exitDx=0;exitDy=0;exitPerimeter=0;entryX=0;entryY=0.5;entryDx=0;entryDy=0;entryPerimeter=0;strokeColor=default;align=center;verticalAlign=middle;fontFamily=Helvetica;fontSize=11;fontColor=default;labelBackgroundColor=default;endArrow=none;endFill=0;" edge="1" parent="1" source="aAubT2UVhq9OH1OdG5Ef-70" target="aAubT2UVhq9OH1OdG5Ef-5">
          <mxGeometry relative="1" as="geometry">
            <Array as="points">
              <mxPoint x="420" y="400" />
              <mxPoint x="420" y="400" />
            </Array>
          </mxGeometry>
        </mxCell>
        <mxCell id="aAubT2UVhq9OH1OdG5Ef-94" style="edgeStyle=orthogonalEdgeStyle;shape=connector;rounded=0;orthogonalLoop=1;jettySize=auto;html=1;exitX=1;exitY=0.5;exitDx=0;exitDy=0;exitPerimeter=0;entryX=0;entryY=0.5;entryDx=0;entryDy=0;entryPerimeter=0;strokeColor=default;align=center;verticalAlign=middle;fontFamily=Helvetica;fontSize=11;fontColor=default;labelBackgroundColor=default;endArrow=none;endFill=0;" edge="1" parent="1" source="aAubT2UVhq9OH1OdG5Ef-68" target="aAubT2UVhq9OH1OdG5Ef-3">
          <mxGeometry relative="1" as="geometry">
            <Array as="points">
              <mxPoint x="160" y="400" />
              <mxPoint x="160" y="400" />
            </Array>
          </mxGeometry>
        </mxCell>
      </root>
    </mxGraphModel>
  </diagram>
</mxfile>
